<?xml version="1.0" standalone="no"?>
<!DOCTYPE svg PUBLIC "-//W3C//DTD SVG 1.1//EN" "http://www.w3.org/Graphics/SVG/1.1/DTD/svg11.dtd" >
<!--
2013-9-30: Created.
-->
<svg>
<metadata>
Created by iconfont
</metadata>
<defs>

<font id="iconfont" horiz-adv-x="1024" >
  <font-face
    font-family="iconfont"
    font-weight="500"
    font-stretch="normal"
    units-per-em="1024"
    ascent="896"
    descent="-128"
  />
    <missing-glyph />
    
    <glyph glyph-name="guilin" unicode="&#58887;" d="M827.392 52.224H196.608c-16.384 0-28.672-12.288-28.672-28.672 0-16.384 12.288-28.672 28.672-28.672h626.688c16.384 0 28.672 12.288 28.672 28.672 0 16.384-12.288 28.672-24.576 28.672zM909.312 166.912H110.592c-12.288 4.096-24.576-4.096-28.672-12.288-8.192-8.192-8.192-20.48 0-32.768 8.192-8.192 16.384-16.384 28.672-12.288h798.72c16.384 0 28.672 12.288 28.672 28.672 0 8.192-4.096 16.384-8.192 20.48-4.096 4.096-12.288 8.192-20.48 8.192zM978.944 257.024l-69.632 90.112-102.4 139.264c-4.096 8.192-12.288 12.288-20.48 12.288s-16.384-4.096-20.48-12.288l-118.784-143.36-270.336 372.736c-4.096 8.192-12.288 12.288-20.48 12.288s-16.384-4.096-24.576-12.288l-286.72-454.656c-4.096-8.192-4.096-20.48 0-28.672 4.096-8.192 16.384-16.384 24.576-16.384h4.096v-4.096h888.832v4.096c8.192 4.096 16.384 8.192 20.48 16.384 0 8.192 0 16.384-4.096 24.576z"  horiz-adv-x="1024" />

    
    <glyph glyph-name="akesu" unicode="&#58888;" d="M880.64-119.808l-86.016 131.072c4.096 4.096 4.096 4.096 4.096 8.192 0 8.192-24.576 16.384-61.44 24.576 49.152 81.92 180.224 360.448-122.88 667.648h-24.576v-659.456h-65.536l4.096 667.648c8.192 8.192 12.288 24.576 12.288 40.96 0 24.576-8.192 45.056-20.48 45.056-4.096 0-4.096 0-8.192-4.096 4.096 8.192 4.096 20.48 4.096 32.768 0 24.576-8.192 45.056-20.48 45.056s-20.48-20.48-20.48-45.056c0-12.288 4.096-24.576 4.096-32.768-4.096 0-4.096 4.096-8.192 4.096-12.288 0-20.48-20.48-20.48-45.056 0-16.384 4.096-32.768 12.288-40.96l-4.096-671.744H401.408V707.584h-20.48C77.824 396.288 208.896 117.76 258.048 35.84c-32.768-4.096-53.248-12.288-53.248-20.48 0-4.096 4.096-4.096 8.192-8.192l-86.016-126.976h753.664z m-229.376 327.68v274.432c-4.096-4.096 106.496-143.36 0-274.432z m-307.2 270.336v-274.432c-106.496 135.168 0 274.432 0 274.432z"  horiz-adv-x="1024" />

    
    <glyph glyph-name="hefei" unicode="&#58889;" d="M466.944 424.10666667V633.00266667l-24.576 4.096V669.86666667s-69.632 20.48-65.536 81.92l-110.592 28.672-49.152-204.8c12.288-45.056 16.384-77.824 249.856-151.552zM458.752 374.95466667000005c-4.096 0-8.192 4.096-12.288 4.096-221.184 73.728-225.28 102.4-233.472 143.36l-122.88-499.712-24.576-98.304H983.04s-290.816 376.832-524.288 450.56z"  horiz-adv-x="1024" />

    
    <glyph glyph-name="huhehaote" unicode="&#58890;" d="M996.18133333-46.08000000000004H963.41333333l-20.48 73.728-98.304 393.216v40.96 24.576c0 4.096-4.096 8.192-8.192 8.192H799.57333333l-262.144 172.032 81.92 81.92s4.096 4.096 4.096 8.192 0 4.096-4.096 8.192L508.75733333 875.52c-4.096 4.096-8.192 4.096-12.288 0-4.096 0-4.096-4.096-4.096-8.192v-200.704L234.32533333 494.592h-36.864c-4.096 0-8.192-4.096-8.192-8.192v-69.632l-94.208-376.832-4.096-4.096-20.48-81.92H41.81333333c-4.096 0-8.192-4.096-8.192-8.192v-28.672c0-4.096 4.096-8.192 8.192-8.192h954.368c4.096 0 8.192 4.096 8.192 8.192v28.672c0 4.096-4.096 8.192-8.192 8.192zM426.83733333-46.08000000000004l90.112 229.376 90.112-229.376H426.83733333z m311.296 81.92v86.016l81.92 81.92s4.096 4.096 4.096 8.192 0 4.096-4.096 8.192l-110.592 110.592c-4.096 4.096-16.384 0-20.48-4.096-4.096 0-4.096-4.096-4.096-8.192V35.84000000000003h-57.344l-98.304 249.856c-4.096 8.192-16.384 8.192-16.384 0L414.54933333 35.84000000000003H303.95733333v86.016l81.92 81.92s4.096 4.096 4.096 8.192 0 4.096-4.096 8.192l-110.592 110.592c-4.096 4.096-32.768 0-36.864-4.096-4.096 0-4.096-4.096-4.096-8.192V35.84000000000003H144.21333333l90.112 364.544H267.09333333v-28.672c0-4.096 4.096-8.192 12.288-8.192H308.05333333c4.096 0 8.192 4.096 8.192 8.192v28.672h45.056v-28.672c0-4.096 4.096-8.192 8.192-8.192h28.672c4.096 0 8.192 4.096 8.192 8.192v28.672h45.056v-28.672c0-4.096 4.096-8.192 8.192-8.192h28.672c4.096 0 8.192 4.096 8.192 8.192v28.672h45.056v-28.672c0-4.096 4.096-8.192 8.192-8.192h28.672c4.096 0 8.192 4.096 8.192 8.192v28.672h45.056v-28.672c0-4.096 4.096-8.192 8.192-8.192h28.672c4.096 0 8.192 4.096 8.192 8.192v28.672h45.056v-28.672c0-4.096 4.096-8.192 8.192-8.192h28.672c4.096 0 8.192 4.096 8.192 8.192v28.672h32.768l90.112-364.544h-151.552z"  horiz-adv-x="1024" />

    
    <glyph glyph-name="kunming" unicode="&#58892;" d="M389.12 674.816L282.624 781.312l40.96-143.36c20.48 16.384 40.96 28.672 65.536 36.864zM749.568 781.312l-106.496-106.496c24.576-8.192 45.056-24.576 65.536-36.864l40.96 143.36zM552.96 699.392l-36.864 147.456-36.864-147.456c24.576 4.096 49.152 4.096 73.728 0zM516.096 650.24C368.64 650.24 245.76 527.36 245.76 379.904c0-151.552 122.88-270.336 270.336-270.336 151.552 0 270.336 122.88 270.336 270.336S667.648 650.24 516.096 650.24zM921.6 613.376l-143.36-40.96c16.384-20.48 28.672-40.96 36.864-65.536l106.496 106.496zM983.04 379.904l-147.456 36.864c4.096-24.576 4.096-49.152 0-77.824l147.456 40.96zM258.048 572.416l-143.36 40.96 106.496-106.496c8.192 24.576 20.48 45.056 36.864 65.536zM479.232 60.416l36.864-147.456 36.864 147.456c-24.576-4.096-49.152-4.096-73.728 0zM196.608 416.768l-147.456-36.864 147.456-36.864c-4.096 24.576-4.096 49.152 0 73.728zM774.144 187.392l143.36-40.96-106.496 106.496c-8.192-24.576-20.48-45.056-36.864-65.536zM643.072 80.896l106.496-106.496-40.96 143.36c-20.48-12.288-40.96-24.576-65.536-36.864zM114.688 146.432l143.36 40.96c-16.384 20.48-28.672 40.96-36.864 65.536l-106.496-106.496zM282.624-25.6l106.496 106.496c-24.576 8.192-45.056 24.576-65.536 36.864l-40.96-143.36z"  horiz-adv-x="1024" />

    
    <glyph glyph-name="wulumuqi" unicode="&#58893;" d="M737.28 801.792l-90.112-278.528 151.552-471.04H983.04zM634.88 371.712L483.328 834.56 372.736 498.688l151.552-458.752 32.768-102.4 4.096-8.192H778.24v8.192zM65.536-78.848h434.176L282.624 584.704z"  horiz-adv-x="1024" />

    
    <glyph glyph-name="tianjin" unicode="&#58894;" d="M958.464 232.448c-32.768 16.384-102.4 45.056-176.128 77.824 40.96 57.344 65.536 122.88 65.536 196.608 0 184.32-151.552 335.872-335.872 335.872S176.128 691.2 176.128 506.88c0-73.728 24.576-139.264 65.536-196.608l-176.128-77.824c-16.384-8.192-28.672-28.672-24.576-45.056 4.096-20.48 20.48-32.768 40.96-32.768 4.096 0 12.288 0 16.384 4.096l204.8 94.208c57.344-49.152 131.072-77.824 212.992-77.824s151.552 28.672 212.992 77.824l204.8-94.208c20.48-8.192 45.056 0 53.248 24.576 0 16.384-12.288 40.96-28.672 49.152zM237.568 506.88a274.432 274.432 0 0 0 548.864 0c0-65.536-24.576-122.88-61.44-172.032-28.672 12.288-57.344 24.576-81.92 36.864-53.248 24.576-86.016 77.824-86.016 135.168V662.528c0 24.576-20.48 45.056-45.056 45.056-24.576 0-45.056-20.48-45.056-45.056v-151.552c0-57.344-32.768-110.592-86.016-135.168l-81.92-36.864c-36.864 45.056-61.44 102.4-61.44 167.936z m274.432-274.432c-53.248 0-106.496 16.384-147.456 45.056l114.688 53.248c20.48 8.192 49.152 8.192 69.632 0l114.688-53.248c-45.056-28.672-98.304-45.056-151.552-45.056zM823.296 15.36c-45.056 0-90.112-28.672-118.784-28.672-28.672 0-57.344 28.672-94.208 28.672-36.864-4.096-81.92-28.672-106.496-28.672-20.48 0-69.632 28.672-98.304 28.672s-94.208-28.672-110.592-28.672c-16.384 0-77.824 28.672-110.592 28.672-32.768 0-77.824-20.48-77.824-20.48v-69.632c8.192-4.096 65.536 20.48 106.496 24.576 40.96 0 61.44-20.48 90.112-24.576 32.768 0 73.728 24.576 106.496 24.576s69.632-20.48 94.208-24.576c28.672 0 81.92 24.576 106.496 24.576 28.672 0 69.632-16.384 98.304-16.384s86.016 28.672 106.496 28.672 90.112-28.672 90.112-28.672 4.096 45.056 0 61.44c-12.288-4.096-36.864 24.576-81.92 20.48zM823.296 134.144c-45.056 0-90.112-28.672-118.784-28.672-28.672 0-57.344 28.672-94.208 28.672-36.864 0-81.92-28.672-106.496-28.672-20.48 0-69.632 28.672-98.304 28.672s-94.208-28.672-110.592-28.672c-16.384 0-77.824 28.672-110.592 28.672-32.768 0-77.824-20.48-77.824-20.48v-69.632c8.192-4.096 65.536 20.48 106.496 24.576 40.96 0 61.44-20.48 90.112-24.576 32.768 0 73.728 24.576 106.496 24.576s69.632-20.48 94.208-24.576c28.672 0 81.92 24.576 106.496 24.576 28.672 0 69.632-16.384 98.304-16.384s86.016 28.672 106.496 28.672 90.112-28.672 90.112-28.672 4.096 45.056 0 61.44c-12.288-8.192-36.864 20.48-81.92 20.48z"  horiz-adv-x="1024" />

    
    <glyph glyph-name="jiujiang" unicode="&#58895;" d="M94.208 531.456h8.192c40.96-12.288 73.728 0 110.592 16.384 24.576 8.192 61.44 20.48 106.496 28.672 118.784 16.384 196.608-12.288 270.336-40.96 57.344-20.48 110.592-40.96 176.128-40.96 40.96 0 81.92 12.288 114.688 32.768 32.768 16.384 57.344 45.056 73.728 77.824v8.192c0 45.056-24.576 61.44-45.056 61.44-20.48 0-36.864-8.192-49.152-24.576-69.632-69.632-155.648-40.96-245.76-8.192-28.672 8.192-53.248 20.48-81.92 24.576-126.976 36.864-266.24 32.768-393.216-16.384h-8.192c-20.48-8.192-40.96-12.288-49.152-28.672-16.384-24.576-12.288-57.344 8.192-81.92l4.096-8.192zM913.408 424.96c-20.48 0-36.864-8.192-49.152-24.576-69.632-69.632-155.648-40.96-245.76-8.192-28.672 8.192-53.248 20.48-81.92 24.576-131.072 36.864-270.336 28.672-401.408-16.384l-8.192-4.096c-20.48-4.096-45.056-12.288-49.152-28.672-16.384-24.576-12.288-57.344 8.192-81.92l8.192-4.096h8.192c40.96-12.288 73.728 0 110.592 16.384 28.672 12.288 65.536 24.576 110.592 28.672 118.784 16.384 196.608-12.288 270.336-40.96 57.344-20.48 110.592-40.96 176.128-40.96 40.96 0 81.92 12.288 114.688 32.768 32.768 16.384 57.344 45.056 73.728 77.824V363.52c0 45.056-20.48 61.44-45.056 61.44zM913.408 175.104c-20.48 0-36.864-8.192-49.152-24.576-69.632-69.632-155.648-40.96-245.76-8.192-28.672 8.192-53.248 20.48-81.92 24.576-131.072 36.864-270.336 28.672-401.408-16.384l-8.192-4.096c-16.384-4.096-36.864-12.288-45.056-28.672-16.384-24.576-12.288-57.344 8.192-81.92l4.096-4.096h8.192c40.96-12.288 73.728 0 110.592 16.384 28.672 12.288 65.536 24.576 110.592 28.672 118.784 16.384 196.608-12.288 270.336-40.96 57.344-20.48 110.592-40.96 176.128-40.96 40.96 0 81.92 12.288 114.688 32.768 32.768 16.384 57.344 45.056 73.728 77.824v8.192c0 45.056-20.48 61.44-45.056 61.44z"  horiz-adv-x="1024" />

    
    <glyph glyph-name="hami" unicode="&#58896;" d="M176.128 105.472c-4.096 8.192-12.288 16.384-16.384 24.576-4.096 4.096-4.096 8.192-8.192 8.192-4.096 4.096-8.192 4.096-12.288 4.096-16.384 0-28.672-12.288-28.672-28.672 0-4.096 0-12.288 4.096-16.384 4.096-8.192 12.288-16.384 16.384-24.576 4.096-8.192 12.288-12.288 24.576-12.288 8.192 0 16.384 4.096 20.48 8.192 4.096 4.096 8.192 12.288 8.192 20.48-4.096 4.096-4.096 8.192-8.192 16.384zM507.904 27.648c188.416 0 339.968 151.552 339.968 339.968S696.32 707.584 507.904 707.584c-188.416 0-339.968-151.552-339.968-339.968s151.552-339.968 339.968-339.968z m16.384 204.8c0 12.288 12.288 24.576 24.576 24.576s24.576-12.288 24.576-24.576-12.288-24.576-24.576-24.576-24.576 12.288-24.576 24.576z m57.344-135.168c-24.576 0-45.056 20.48-45.056 45.056s20.48 45.056 45.056 45.056c24.576 0 45.056-20.48 45.056-45.056s-20.48-45.056-45.056-45.056z m28.672 155.648c-16.384 0-28.672 12.288-28.672 28.672 0 16.384 12.288 28.672 28.672 28.672 16.384 0 28.672-12.288 28.672-28.672 0-12.288-12.288-28.672-28.672-28.672z m-4.096 114.688c0 16.384 12.288 28.672 28.672 28.672 16.384 0 28.672-12.288 28.672-28.672 0-16.384-12.288-28.672-28.672-28.672-16.384 0-28.672 12.288-28.672 28.672z m81.92-180.224c-24.576 0-45.056 20.48-45.056 45.056 0 24.576 20.48 45.056 45.056 45.056s45.056-20.48 45.056-45.056c0-24.576-20.48-45.056-45.056-45.056z m86.016 188.416c0-24.576-20.48-45.056-45.056-45.056-24.576 0-45.056 20.48-45.056 45.056s20.48 45.056 45.056 45.056c24.576 0 45.056-20.48 45.056-45.056z m-86.016 180.224c24.576 0 45.056-20.48 45.056-45.056 0-24.576-20.48-45.056-45.056-45.056s-45.056 20.48-45.056 45.056c0 24.576 20.48 45.056 45.056 45.056z m-49.152-114.688c0-16.384-12.288-28.672-28.672-28.672-16.384 0-28.672 12.288-28.672 28.672 0 16.384 12.288 28.672 28.672 28.672 16.384 4.096 28.672-12.288 28.672-28.672z m-57.344 192.512c24.576 0 45.056-20.48 45.056-45.056s-20.48-45.056-45.056-45.056c-24.576 0-45.056 20.48-45.056 45.056s20.48 45.056 45.056 45.056z m-32.768-110.592c20.48 0 32.768-16.384 32.768-32.768 0-20.48-16.384-32.768-32.768-32.768-20.48 0-32.768 16.384-32.768 32.768 0 20.48 16.384 32.768 32.768 32.768zM327.68 187.392c-24.576 0-45.056 20.48-45.056 45.056 0 24.576 20.48 45.056 45.056 45.056s45.056-20.48 45.056-45.056c0-24.576-20.48-45.056-45.056-45.056z m20.48 180.224c0 12.288 4.096 20.48 16.384 24.576 8.192 4.096 20.48 4.096 28.672 0 8.192-4.096 16.384-16.384 16.384-24.576 0-12.288-4.096-20.48-16.384-24.576-4.096-4.096-8.192-4.096-16.384-4.096-4.096 0-12.288 0-16.384 4.096-4.096 4.096-12.288 12.288-12.288 24.576z m24.576-81.92c0 12.288 4.096 20.48 16.384 24.576 8.192 4.096 20.48 4.096 28.672 0 8.192-4.096 16.384-16.384 16.384-24.576 0-12.288-4.096-20.48-16.384-24.576-4.096-4.096-8.192-4.096-16.384-4.096-4.096 0-12.288 0-16.384 4.096-4.096 4.096-12.288 12.288-12.288 24.576z m61.44-188.416c-24.576 0-45.056 20.48-45.056 45.056s20.48 45.056 45.056 45.056 45.056-20.48 45.056-45.056-20.48-45.056-45.056-45.056z m45.056 110.592c-4.096-4.096-8.192-4.096-16.384-4.096-4.096 0-12.288 0-16.384 4.096-8.192 4.096-16.384 16.384-16.384 24.576 0 12.288 4.096 20.48 16.384 24.576 8.192 4.096 20.48 4.096 28.672 0 8.192-4.096 16.384-16.384 16.384-24.576 0-12.288-4.096-20.48-12.288-24.576z m12.288 282.624c0-12.288-4.096-20.48-16.384-24.576-4.096-4.096-8.192-4.096-16.384-4.096-4.096 0-12.288 0-16.384 4.096-8.192 4.096-16.384 16.384-16.384 24.576 0 12.288 4.096 20.48 16.384 24.576 8.192 4.096 20.48 4.096 28.672 0 16.384-4.096 20.48-12.288 20.48-24.576z m-57.344 143.36c24.576 0 45.056-20.48 45.056-45.056s-20.48-45.056-45.056-45.056-45.056 20.48-45.056 45.056 20.48 45.056 45.056 45.056z m-45.056-163.84c8.192 4.096 20.48 4.096 28.672 0 8.192-4.096 16.384-16.384 16.384-24.576 0-12.288-4.096-20.48-16.384-24.576-4.096-4.096-8.192-4.096-16.384-4.096-4.096 0-12.288 0-16.384 4.096-8.192 4.096-16.384 16.384-16.384 24.576 4.096 8.192 12.288 16.384 20.48 24.576zM327.68 556.032c24.576 0 45.056-20.48 45.056-45.056 0-24.576-20.48-45.056-45.056-45.056S282.624 486.4 282.624 510.976c0 24.576 20.48 45.056 45.056 45.056z m-86.016-180.224c0 24.576 20.48 45.056 45.056 45.056 24.576 0 45.056-20.48 45.056-45.056s-20.48-45.056-45.056-45.056c-24.576 0-45.056 20.48-45.056 45.056zM507.904 855.04C249.856 855.04 36.864 637.952 36.864 367.616c0-69.632 12.288-135.168 40.96-196.608 4.096-12.288 16.384-20.48 24.576-20.48 16.384 0 28.672 12.288 28.672 24.576v4.096c0 4.096 0 8.192-4.096 12.288 0 0 0 4.096-4.096 4.096-20.48 53.248-32.768 110.592-32.768 167.936 0 57.344 12.288 114.688 32.768 167.936 20.48 49.152 49.152 98.304 90.112 135.168 36.864 40.96 81.92 69.632 131.072 90.112 102.4 45.056 217.088 45.056 319.488 0 49.152-20.48 94.208-53.248 131.072-90.112 36.864-40.96 69.632-86.016 90.112-135.168 20.48-53.248 32.768-110.592 32.768-167.936 0-57.344-12.288-114.688-32.768-167.936-20.48-49.152-49.152-98.304-90.112-135.168-36.864-40.96-81.92-69.632-131.072-90.112a394.4448 394.4448 0 0 0-319.488 0c-45.056 20.48-86.016 49.152-122.88 81.92-4.096 4.096-8.192 8.192-12.288 8.192-12.288 4.096-28.672-4.096-36.864-16.384-4.096-12.288 0-24.576 8.192-32.768 86.016-86.016 200.704-131.072 323.584-131.072 258.048 0 471.04 217.088 471.04 487.424C978.944 637.952 765.952 855.04 507.904 855.04z"  horiz-adv-x="1024" />

    
    <glyph glyph-name="zhanjiang" unicode="&#58897;" d="M650.709163 626.741036s-142.788845 93.832669-203.984063 228.462151c0 0-77.513944-126.47012-138.709164-432.446215 28.557769-28.557769 53.035857-44.876494 53.035857-44.876494-20.398406-232.541833 20.398406-501.800797 20.398406-501.800797H679.266932s-36.717131 244.780876-36.717131 514.039841c-4.079681 81.593625 0 159.10757 8.159362 236.621514zM332.494024 377.880478s-24.478088 16.318725-53.035857 44.876494c-28.557769 28.557769-61.195219 65.2749-81.593625 106.071713 0 0-110.151394-183.585657-134.629482-656.828685h289.65737c-4.079681 4.079681-40.796813 273.338645-20.398406 505.880478zM944.446215 439.075697S838.374502 508.430279 789.418327 610.422311c0 0-40.796813-65.2749-77.513945-220.302789 0-273.338645 36.717131-514.039841 36.717132-514.039841h216.223108s-44.876494 301.896414-20.398407 562.996016z"  horiz-adv-x="1024" />

    
    <glyph glyph-name="zhangjiakou" unicode="&#58898;" d="M835.584 732.16v-90.112h-114.688V732.16c0 12.288-12.288 24.576-24.576 24.576h-69.632c-12.288 0-24.576-12.288-24.576-24.576v-90.112h-114.688V732.16c0 12.288-12.288 24.576-24.576 24.576H393.216c-12.288 0-24.576-12.288-24.576-24.576v-90.112H253.952V732.16c0 12.288-12.288 24.576-24.576 24.576h-81.92c-12.288 0-24.576-12.288-24.576-24.576v-765.952h262.144v270.336c0 73.728 57.344 143.36 131.072 147.456 77.824 4.096 143.36-61.44 143.36-139.264v-278.528h262.144V732.16c0 12.288-12.288 24.576-24.576 24.576H860.16c-16.384 0-24.576-12.288-24.576-24.576z"  horiz-adv-x="1024" />

    
    <glyph glyph-name="taiyuan" unicode="&#58899;" d="M532.48 437.248l364.544 4.096c24.576 0 49.152 24.576 49.152 24.576-77.824 12.288-102.4 32.768-102.4 32.768V543.744h-258.048v-45.056c-45.056-28.672-102.4-28.672-102.4-28.672 4.096-24.576 49.152-32.768 49.152-32.768zM524.288 621.568s36.864-24.576 49.152-24.576h274.432s28.672 4.096 57.344 24.576c0 0-167.936 69.632-180.224 102.4 4.096 4.096 12.288 12.288 12.288 20.48 0 12.288-8.192 20.48-20.48 20.48s-20.48-8.192-20.48-20.48c0-8.192 4.096-16.384 12.288-20.48-4.096 0-94.208-98.304-184.32-102.4zM507.904 277.504h430.08c24.576 4.096 40.96 28.672 40.96 28.672-32.768-4.096-98.304 49.152-98.304 49.152v40.96h-327.68v-40.96c-8.192-24.576-98.304-49.152-98.304-49.152 24.576-28.672 53.248-28.672 53.248-28.672zM892.928 195.584V240.64h-356.352v-45.056c-8.192-24.576-106.496-53.248-106.496-53.248 24.576-32.768 57.344-32.768 57.344-32.768h466.944c24.576 4.096 45.056 32.768 45.056 32.768-36.864-4.096-106.496 53.248-106.496 53.248zM892.928 72.704h-389.12v-86.016h421.888v86.016h-32.768zM77.824 490.496l282.624 4.096c20.48 0 36.864 20.48 36.864 20.48-61.44 8.192-77.824 24.576-77.824 24.576v32.768H118.784v-32.768c-32.768-24.576-77.824-24.576-77.824-24.576 0-20.48 36.864-24.576 36.864-24.576zM73.728 629.76s28.672-20.48 36.864-20.48h212.992s24.576 4.096 45.056 20.48c0 0-126.976 53.248-139.264 77.824 4.096 4.096 8.192 8.192 8.192 16.384s-8.192 16.384-16.384 16.384c-12.288 0-20.48-8.192-20.48-16.384s4.096-12.288 8.192-16.384c0 0-65.536-73.728-135.168-77.824zM389.12 367.616c20.48 4.096 32.768 20.48 32.768 20.48-24.576-4.096-73.728 36.864-73.728 36.864v32.768H94.208v-32.768c-8.192-20.48-73.728-36.864-73.728-36.864 20.48-20.48 40.96-20.48 40.96-20.48h327.68zM352.256 302.08v32.768H81.92v-32.768c-8.192-20.48-81.92-40.96-81.92-40.96 20.48-24.576 45.056-24.576 45.056-24.576h356.352c20.48 4.096 32.768 24.576 32.768 24.576-24.576-4.096-81.92 40.96-81.92 40.96zM356.352 207.872H57.344v-65.536H380.928v65.536h-24.576z"  horiz-adv-x="1024" />

    
    <glyph glyph-name="zhengzhou" unicode="&#58900;" d="M200.704 564.224c0 4.096 0 4.096 0 0 0 4.096 0 4.096 0 0zM192.512 52.224s-12.288-4.096 0 0zM184.32 203.776s0-4.096 0 0zM483.328 52.224c12.288-4.096 0 0 0 0zM491.52 277.504l-16.384 4.096c-16.384 24.576 12.288 69.632 12.288 69.632l-12.288 8.192c-12.288 8.192 8.192 69.632 8.192 69.632l-12.288 8.192c-12.288 8.192 4.096 65.536 4.096 65.536s-8.192 0-12.288 8.192c0 8.192 4.096 53.248 4.096 53.248l-8.192 4.096v4.096c-4.096 12.288 4.096 49.152 4.096 49.152s-4.096 0-12.288 8.192v4.096c-4.096 12.288 0 53.248 0 53.248 0 8.192-4.096 4.096-4.096 4.096l-16.384 65.536c-8.192 8.192-94.208 16.384-94.208 16.384s-81.92-8.192-94.208-16.384L229.376 691.2s-4.096 4.096-12.288-4.096c0 0 4.096-40.96 0-53.248v-4.096l-12.288-8.192s8.192-32.768 4.096-49.152V568.32l-8.192-4.096c0-4.096 8.192-45.056 4.096-53.248 0-8.192-8.192-8.192-8.192-8.192s16.384-61.44 4.096-65.536l-12.288-8.192s16.384-61.44 8.192-65.536-12.288-8.192-12.288-8.192 28.672-45.056 12.288-69.632l-16.384-4.096s28.672-57.344 12.288-69.632c-8.192-4.096-12.288-8.192-12.288-8.192 4.096-8.192 16.384-36.864 16.384-53.248-4.096-20.48-8.192-20.48-8.192-20.48s28.672-61.44 8.192-73.728c-4.096 0-4.096-4.096-8.192-4.096 4.096-12.288 28.672-65.536 12.288-77.824h-12.288l49.152-90.112h196.608l49.152 90.112h-12.288c-20.48 12.288 4.096 65.536 12.288 77.824 0 0-4.096 0-8.192 4.096-24.576 12.288 8.192 73.728 8.192 73.728s-4.096 0-8.192 20.48c-4.096 16.384 12.288 49.152 16.384 53.248 0 0-4.096 0-12.288 8.192-16.384 8.192 12.288 65.536 12.288 65.536zM471.04 564.224c0 4.096 0 4.096 0 0 0 4.096 0 4.096 0 0zM487.424 203.776c4.096-4.096 0 0 0 0zM839.68-115.712L749.568 199.68 737.28 490.496l32.768 106.496v36.864l-45.056 36.864-24.576 221.184V896l-28.672-225.28-40.96-32.768v-36.864l32.768-106.496-12.288-290.816-90.112-319.488h139.264z"  horiz-adv-x="1024" />

    
    <glyph glyph-name="yancheng" unicode="&#58901;" d="M958.464 351.232c20.48 8.192 40.96 24.576 57.344 36.864 4.096 0 4.096 8.192 4.096 8.192-4.096 0-8.192 4.096-12.288 4.096-90.112-4.096-176.128-12.288-262.144-36.864-8.192-4.096-20.48-8.192-28.672-8.192h-4.096c-4.096 0-12.288 0-16.384-4.096-4.096 0-12.288 0-16.384-4.096h-8.192c-16.384 0-69.632 16.384-98.304 32.768l-4.096 4.096h-4.096c-4.096 4.096-8.192 8.192-12.288 8.192-4.096 4.096-8.192 12.288-12.288 16.384 0 4.096 0 4.096-4.096 8.192-4.096 8.192-8.192 12.288-8.192 20.48 0 4.096-4.096 12.288-4.096 16.384 0 4.096 0 8.192-4.096 12.288 0 16.384-4.096 36.864-4.096 57.344 0 36.864 4.096 69.632 8.192 90.112 0 4.096 4.096 8.192 4.096 12.288 0 4.096 4.096 8.192 4.096 12.288 0 16.384-8.192 32.768-16.384 36.864-4.096 16.384-4.096 28.672-8.192 45.056 0-12.288 0-20.48-4.096-28.672v-16.384c-8.192-4.096-16.384-20.48-16.384-36.864 0-4.096 0-12.288 4.096-16.384 0-4.096 0-4.096 4.096-4.096v-4.096c4.096-16.384 8.192-53.248 8.192-94.208 0-16.384 0-32.768-4.096-49.152 0-8.192-4.096-12.288-4.096-20.48 0-4.096-4.096-8.192-4.096-12.288-4.096-8.192-4.096-12.288-8.192-16.384 0 0 0-4.096-4.096-4.096 0 0 0-4.096-4.096-8.192s-4.096-4.096-4.096-8.192c-4.096-4.096-4.096-8.192-8.192-8.192-12.288-12.288-53.248-28.672-77.824-36.864-4.096 0-8.192-4.096-8.192-4.096h-28.672c-12.288 0-20.48 4.096-28.672 4.096-12.288 4.096-20.48 4.096-32.768 8.192-90.112 24.576-176.128 36.864-270.336 36.864H0c4.096-4.096 4.096-8.192 4.096-8.192 16.384-16.384 40.96-28.672 61.44-40.96H102.4s0-4.096 4.096-4.096c-24.576-4.096-49.152-8.192-73.728-20.48 8.192-12.288 20.48-20.48 32.768-24.576 12.288-4.096 24.576-4.096 40.96-8.192-12.288-4.096-16.384-8.192-24.576-12.288-4.096 0-4.096-4.096-8.192-8.192 4.096-4.096 4.096-8.192 8.192-8.192 12.288-4.096 28.672-8.192 40.96-8.192h16.384c4.096-8.192-8.192-16.384-16.384-20.48-4.096 0-4.096-4.096-8.192-8.192 4.096-4.096 4.096-8.192 8.192-8.192 12.288-4.096 24.576-8.192 40.96-8.192h36.864c-12.288-12.288-24.576-20.48-36.864-32.768 36.864-16.384 65.536-8.192 90.112 16.384v-4.096c-16.384-16.384-36.864-32.768-53.248-53.248 24.576-16.384 57.344-8.192 77.824 12.288 12.288 12.288 20.48 24.576 32.768 32.768h4.096c-24.576-20.48-40.96-45.056-61.44-73.728-4.096-4.096-4.096-8.192 4.096-12.288 16.384-4.096 45.056 4.096 53.248 20.48 8.192 16.384 16.384 28.672 24.576 40.96h4.096s0-4.096-4.096-4.096c-12.288-28.672-28.672-53.248-40.96-81.92-4.096-4.096-4.096-8.192 4.096-12.288 16.384-4.096 49.152 16.384 53.248 36.864 4.096 20.48 16.384 40.96 28.672 53.248 0-4.096-4.096-8.192-4.096-12.288-16.384-28.672-24.576-61.44-28.672-94.208 0-4.096 4.096-8.192 4.096-12.288 12.288 0 32.768 16.384 36.864 24.576 8.192 20.48 12.288 45.056 20.48 65.536 0 4.096 4.096 8.192 8.192 12.288 0-4.096 4.096-4.096 4.096-4.096-20.48-40.96-28.672-94.208-20.48-126.976 16.384 0 36.864 20.48 36.864 36.864s4.096 53.248 4.096 69.632h4.096c0-16.384-4.096-57.344-4.096-73.728 0-16.384 8.192-32.768 12.288-57.344 12.288 8.192 16.384 12.288 24.576 20.48 8.192 8.192 12.288 16.384 8.192 28.672-8.192 28.672-8.192 53.248 0 81.92v4.096h8.192s0-4.096-4.096-8.192c-8.192-32.768-8.192-65.536 4.096-98.304 4.096-12.288 12.288-28.672 24.576-40.96 36.864 36.864 40.96 122.88 24.576 147.456 4.096 4.096 4.096 4.096 12.288 4.096v-4.096c4.096-28.672 8.192-53.248 0-81.92-4.096-20.48 4.096-32.768 16.384-40.96 12.288-8.192 12.288-8.192 16.384 4.096l12.288 73.728v-20.48c-4.096-20.48 8.192-32.768 24.576-40.96 12.288-8.192 16.384-4.096 16.384 8.192 0 24.576-4.096 45.056-4.096 69.632v12.288c4.096-8.192 8.192-20.48 8.192-28.672 4.096-20.48 20.48-36.864 45.056-32.768 4.096 20.48 0 40.96-8.192 57.344-8.192 20.48-16.384 36.864-24.576 53.248h4.096c8.192-16.384 16.384-28.672 24.576-45.056 4.096-8.192 4.096-16.384 8.192-20.48 12.288-8.192 24.576-16.384 36.864-20.48 4.096 0 8.192 0 12.288 4.096V76.8c-12.288 20.48-20.48 45.056-32.768 65.536 0 0 0 4.096-4.096 4.096 8.192-8.192 16.384-16.384 20.48-24.576 8.192-20.48 28.672-28.672 49.152-28.672 12.288 0 16.384 4.096 8.192 16.384-16.384 20.48-32.768 45.056-49.152 65.536 8.192-8.192 20.48-16.384 24.576-24.576 16.384-24.576 40.96-24.576 65.536-20.48 4.096 0 8.192 4.096 16.384 4.096l-57.344 57.344c8.192-4.096 12.288-8.192 20.48-12.288 20.48-20.48 40.96-16.384 65.536-12.288 12.288 4.096 12.288 4.096 4.096 12.288-8.192 8.192-16.384 16.384-28.672 20.48h12.288c20.48-4.096 45.056 0 65.536 8.192 4.096 0 8.192 4.096 8.192 8.192l-8.192 8.192c-12.288 4.096-20.48 12.288-32.768 16.384v4.096h12.288c12.288 4.096 28.672 4.096 40.96 8.192 4.096 0 4.096 4.096 8.192 8.192l-8.192 8.192-24.576 12.288c16.384 4.096 28.672 4.096 40.96 8.192 12.288 4.096 24.576 8.192 32.768 24.576-53.248 20.48-106.496 24.576-163.84 24.576h77.824c16.384 12.288 36.864 4.096 49.152 12.288z"  horiz-adv-x="1024" />

    
    <glyph glyph-name="changsha" unicode="&#58902;" d="M958.464 412.672c-16.384-4.096-28.672 4.096-45.056-4.096h-4.096c-4.096 0-8.192 4.096-8.192 4.096-8.192 0-16.384 0-28.672-4.096-12.288-4.096-28.672 0-45.056-4.096h-20.48-4.096c-4.096 0-8.192 4.096-12.288 4.096h-24.576c-12.288 4.096-20.48 8.192-32.768 4.096h-16.384c-4.096 8.192-8.192 12.288-8.192 20.48-4.096 12.288-8.192 24.576-20.48 28.672-12.288 4.096-24.576 8.192-36.864 8.192 0 4.096-4.096 8.192-4.096 12.288v8.192c0 4.096 4.096 8.192 4.096 12.288 0 12.288 4.096 16.384 16.384 20.48 4.096 12.288 12.288 24.576 24.576 28.672 0 4.096-4.096 4.096-4.096 4.096 0 8.192 0 16.384 4.096 24.576 4.096 8.192 8.192 16.384 8.192 28.672 4.096 12.288 4.096 24.576 4.096 40.96 0 4.096 4.096 8.192 4.096 12.288v20.48c-4.096 12.288-8.192 20.48-8.192 32.768v8.192c0 4.096 4.096 4.096 4.096 8.192 0 8.192-4.096 20.48-4.096 28.672 0 4.096 0 8.192-4.096 12.288-4.096 4.096-12.288 12.288-16.384 20.48-4.096 4.096-4.096 8.192-8.192 12.288-8.192 4.096-12.288 16.384-16.384 24.576-8.192 12.288-16.384 20.48-28.672 20.48-12.288 4.096-24.576-4.096-32.768-8.192-8.192 4.096-12.288 12.288-20.48 12.288h-12.288l-24.576-36.864c-4.096 4.096-4.096 8.192-4.096 8.192-4.096 8.192-8.192 16.384-20.48 16.384-4.096 0-12.288 4.096-16.384 4.096-8.192 0-16.384 4.096-20.48 4.096-8.192-8.192-20.48-4.096-32.768-8.192-4.096 0-4.096-4.096-8.192-4.096-8.192 0-16.384-8.192-24.576-16.384-8.192-12.288-16.384-20.48-24.576-32.768-4.096-8.192-8.192-12.288-12.288-20.48-8.192 0-16.384-4.096-24.576-12.288-4.096-4.096-12.288-8.192-16.384-12.288-8.192-4.096-16.384-8.192-16.384-20.48-4.096 0-4.096 0-8.192-4.096-4.096-8.192-12.288-16.384-16.384-24.576-4.096-8.192-12.288-16.384-8.192-24.576 8.192-12.288 4.096-24.576 4.096-32.768v-4.096c4.096 0 8.192-4.096 12.288-4.096 0-4.096-4.096-8.192-4.096-8.192 4.096-4.096 4.096-16.384 16.384-20.48 4.096 0 8.192-4.096 12.288-8.192 4.096-4.096 4.096-8.192 8.192-12.288 0-8.192 8.192-16.384 8.192-24.576 0-12.288 4.096-16.384 12.288-20.48 8.192-8.192 20.48-8.192 28.672-12.288 4.096 0 8.192-4.096 12.288-4.096 4.096-4.096 8.192-4.096 12.288-4.096 4.096 0 8.192-4.096 8.192-8.192s0-4.096 4.096-8.192 4.096-8.192 8.192-16.384c0-4.096 0-8.192 4.096-12.288 4.096-12.288 4.096-12.288-8.192-16.384-4.096 0-8.192-4.096-8.192-4.096-8.192-4.096-20.48-8.192-32.768-12.288 0-20.48-16.384-24.576-32.768-36.864v-8.192c-4.096-4.096-12.288-8.192-16.384-12.288-12.288-8.192-24.576-16.384-36.864-16.384H286.72c-4.096 0-12.288-4.096-16.384-4.096-8.192 0-12.288-4.096-20.48-4.096-4.096 0-8.192-4.096-16.384-4.096-8.192-4.096-16.384-4.096-24.576-4.096-8.192 0-16.384-4.096-24.576-4.096-8.192 0-20.48-4.096-28.672-8.192h-4.096c-8.192 0-16.384-4.096-24.576-4.096-8.192 0-16.384-4.096-28.672-4.096-8.192 0-16.384-4.096-24.576-4.096h-8.192c-8.192 0-16.384 0-24.576-4.096V-87.04h942.08V416.768c-8.192 0-16.384-4.096-24.576-4.096z"  horiz-adv-x="1024" />

    
    <glyph glyph-name="shenyang" unicode="&#58891;" d="M557.056 813.22666667h12.288-12.288zM503.808 71.85066667000001c188.416 0 339.968 151.552 339.968 339.968S692.224 751.7866666699999 503.808 751.7866666699999 163.84 596.13866667 163.84 411.81866667s151.552-339.968 339.968-339.968z m0 618.496c151.552 0 278.528-122.88 278.528-278.528s-122.88-278.528-278.528-278.528-278.528 122.88-278.528 278.528 126.976 278.528 278.528 278.528zM667.648 575.65866667h-327.68v-331.776h331.776V575.65866667z m-40.96-290.816h-245.76V534.69866667h249.856v-249.856zM430.08 485.54666667h147.456v-147.456h-147.456zM933.888 235.69066667000004c20.48 53.248 32.768 110.592 32.768 172.032C966.656 665.77066667 757.76 874.66666667 503.808 874.66666667S40.96 665.77066667 40.96 411.81866667c0-61.44 12.288-118.784 32.768-172.032h-40.96V-108.37333333000004h946.176v344.064h-45.056zM503.808 813.22666667c221.184 0 401.408-180.224 401.408-401.408s-180.224-401.408-401.408-401.408-401.408 180.224-401.408 401.408 180.224 401.408 401.408 401.408z"  horiz-adv-x="1024" />

    
    <glyph glyph-name="shujujiekou" unicode="&#58903;" d="M73.142857 515.657143h87.771429v-102.4c0-21.942857 14.628571-43.885714 36.571428-43.885714h256c21.942857 0 36.571429 21.942857 36.571429 43.885714V515.657143H950.857143c36.571429 0 65.828571 29.257143 65.828571 73.142857s-29.257143 73.142857-65.828571 73.142857H504.685714V771.657143c0 21.942857-14.628571 43.885714-36.571428 43.885714H204.8c-21.942857 0-36.571429-21.942857-36.571429-43.885714v-102.4H73.142857c-36.571429 0-65.828571-29.257143-65.828571-73.142857s29.257143-80.457143 65.828571-80.457143zM958.171429 223.085714h-51.2V332.8c0 21.942857-14.628571 43.885714-36.571429 43.885714H607.085714c-21.942857-7.314286-43.885714-21.942857-43.885714-43.885714v-102.4H80.457143c-36.571429 0-65.828571-29.257143-65.828572-73.142857s29.257143-73.142857 65.828572-73.142857h490.057143v-102.4c0-21.942857 14.628571-43.885714 36.571428-43.885715h256c21.942857 0 36.571429 21.942857 36.571429 43.885715v102.4h51.2c36.571429 0 65.828571 29.257143 65.828571 73.142857s-21.942857 65.828571-58.514285 65.828571z"  horiz-adv-x="1024" />

    
    <glyph glyph-name="shujuliang" unicode="&#58904;" d="M153.6 384h-65.828571c-43.885714 0-73.142857-29.257143-73.142858-73.142857v-365.714286c0-43.885714 29.257143-73.142857 73.142858-73.142857h65.828571c43.885714 0 73.142857 29.257143 73.142857 73.142857V310.857143c0 43.885714-36.571429 73.142857-73.142857 73.142857zM541.257143 866.742857h-65.828572c-43.885714 0-73.142857-29.257143-73.142857-73.142857v-841.142857c0-43.885714 29.257143-73.142857 73.142857-73.142857h65.828572c43.885714 0 73.142857 29.257143 73.142857 73.142857V793.6c0 43.885714-36.571429 73.142857-73.142857 73.142857zM921.6 632.685714h-65.828571c-43.885714 0-73.142857-29.257143-73.142858-73.142857V-54.857143c0-43.885714 29.257143-73.142857 73.142858-73.142857h65.828571c43.885714 0 73.142857 29.257143 73.142857 73.142857V559.542857c0 43.885714-29.257143 73.142857-73.142857 73.142857z"  horiz-adv-x="1024" />

    
    <glyph glyph-name="kexiazaishuju" unicode="&#58905;" d="M899.657143 859.428571H117.028571C65.828571 859.428571 29.257143 822.857143 29.257143 778.971429v-804.571429c0-43.885714 36.571429-87.771429 87.771428-87.771429h789.942858c43.885714 0 87.771429 36.571429 87.771428 87.771429v804.571429C987.428571 822.857143 950.857143 859.428571 899.657143 859.428571zM416.914286 442.514286V705.828571c0 21.942857 21.942857 43.885714 43.885714 43.885715h95.085714c29.257143 0 43.885714-21.942857 43.885715-43.885715v-270.628571H731.428571L541.257143 208.457143c-14.628571-21.942857-51.2-21.942857-65.828572 0L285.257143 442.514286h131.657143z m431.542857-387.657143c0-21.942857-14.628571-36.571429-36.571429-36.571429H212.114286c-21.942857 0-36.571429 14.628571-36.571429 36.571429V91.428571c0 21.942857 14.628571 36.571429 36.571429 36.571429h599.771428c21.942857 0 36.571429-14.628571 36.571429-36.571429v-36.571428z"  horiz-adv-x="1024" />

    
    <glyph glyph-name="xiazaicishu" unicode="&#58906;" d="M994.742857 530.285714c-21.942857 29.257143-73.142857 36.571429-102.4 14.628572l-277.942857-219.428572V793.6C614.4 844.8 570.514286 888.685714 519.314286 888.685714c-51.2 0-95.085714-43.885714-95.085715-95.085714v-468.114286L146.285714 544.914286c-36.571429 29.257143-80.457143 21.942857-102.4-7.314286S21.942857 457.142857 51.2 435.2l424.228571-336.457143c14.628571-7.314286 29.257143-14.628571 43.885715-14.628571s29.257143 7.314286 43.885714 14.628571l416.914286 329.142857c36.571429 21.942857 36.571429 73.142857 14.628571 102.4zM819.2 25.6H219.428571c-43.885714 0-73.142857-29.257143-73.142857-73.142857s29.257143-73.142857 73.142857-73.142857h599.771429c43.885714 0 73.142857 29.257143 73.142857 73.142857s-36.571429 73.142857-73.142857 73.142857z"  horiz-adv-x="1024" />

    
    <glyph glyph-name="shujutiaoyong" unicode="&#58907;" d="M1016.685714 632.685714l-131.657143 219.428572c-7.314286 14.628571-29.257143 14.628571-43.885714 0l-131.657143-219.428572c-7.314286-14.628571 0-36.571429 21.942857-36.571428h51.2v-394.971429c0-43.885714-36.571429-80.457143-80.457142-80.457143h-36.571429c-43.885714-7.314286-80.457143 29.257143-80.457143 73.142857V610.742857C585.142857 735.085714 482.742857 837.485714 358.4 837.485714h-51.2C182.857143 837.485714 80.457143 735.085714 80.457143 610.742857v-460.8H36.571429c-21.942857 0-29.257143-21.942857-21.942858-36.571428l131.657143-219.428572c7.314286-14.628571 29.257143-14.628571 43.885715 0l131.657142 219.428572c7.314286 14.628571 0 36.571429-21.942857 36.571428h-73.142857V610.742857c0 43.885714 36.571429 80.457143 80.457143 80.457143h43.885714c51.2 7.314286 87.771429-29.257143 87.771429-80.457143v-416.914286c0-124.342857 102.4-226.742857 226.742857-226.742857h43.885714c124.342857 0 226.742857 102.4 226.742857 226.742857V596.114286h58.514286c21.942857 0 29.257143 14.628571 21.942857 36.571428z"  horiz-adv-x="1024" />

    
    <glyph glyph-name="shujumulu" unicode="&#58908;" d="M409.14285687 659.04761864h473.14285782c34.28571469 0 68.57142844 27.42857156 68.57142844 68.57142938v54.85714219c0 41.14285687-27.42857156 68.57142844-68.57142844 68.57142843H409.14285687c-34.28571469 0-68.57142844-27.42857156-68.57142843-68.57142843v-61.71428532c6.85714313-34.28571469 34.28571469-61.71428531 68.57142843-61.71428625zM923.42857156 494.4761902H416c-34.28571469 0-68.57142844-27.42857156-68.57142844-68.57142843v-61.71428532c0-41.14285687 27.42857156-68.57142844 68.57142844-68.57142843H923.42857156c34.28571469 0 68.57142844 27.42857156 68.57142844 68.57142843v61.71428532c0 34.28571469-27.42857156 68.57142844-68.57142844 68.57142843zM841.14285688 131.04761864H409.14285687c-34.28571469 0-68.57142844-27.42857156-68.57142843-68.57142844v-61.71428531c0-41.14285687 27.42857156-68.57142844 68.57142843-68.57142844h432.00000001c34.28571469 0 68.57142844 27.42857156 68.57142843 68.57142844V62.47619021000003c0 34.28571469-27.42857156 68.57142844-68.57142844 68.57142843zM141.71428531 851.04761864h-20.57142843C73.14285688 851.04761864 38.85714312 816.76190489 38.85714312 768.76190489V748.19047645c0-48 41.14285687-89.14285687 89.14285688-89.14285781h20.57142844C196.57142844 659.04761864 237.71428531 700.19047646 237.71428531 748.19047645v20.57142844C230.85714312 816.76190489 189.71428531 851.04761864 141.71428531 851.04761864zM141.71428531 487.61904802h-20.57142843C73.14285688 487.61904802 38.85714312 453.33333333 38.85714312 405.33333333v-20.57142844c0-48 41.14285687-89.14285687 89.14285688-89.14285687h20.57142844C196.57142844 295.61904802000004 237.71428531 336.76190489 237.71428531 384.76190489V405.33333333c-6.85714313 48-48 82.28571469-96 82.28571469zM141.71428531 131.04761864h-20.57142843c-48 0-89.14285687-41.14285687-89.14285688-89.14285687v-20.57142844c0-48 41.14285687-89.14285687 89.14285688-89.14285688h20.57142843c48 0 89.14285687 41.14285687 89.14285782 89.14285688v20.57142844c0 48-41.14285687 89.14285687-89.14285782 89.14285687z"  horiz-adv-x="1024" />

    
    <glyph glyph-name="remen" unicode="&#58909;" d="M834.43809567 471.771429c-21.942857 80.457143 0 138.971429 0 138.971428-80.457143-7.314286-117.028571-109.714286-117.028572-109.714286C680.83809567 815.542857 388.26666667 874.057143 388.26666667 874.057143c58.514286-65.828571-7.314286-241.371429-65.828571-299.885714-73.142857-73.142857-109.714286-190.171429-109.714286-190.171429 7.314286 21.942857-36.571429 73.142857-36.571429 73.142857C-14.01904733-25.600000000000023 417.52380967-120.68571399999996 417.52380967-120.68571399999996c-102.4 109.714286 0 226.742857 0 234.057143 36.571429 51.2 102.4 182.857143 102.4 182.857142 270.628571-256 138.971429-402.285714 138.971428-402.285714 416.914286 146.285714 175.542857 577.828571 175.542858 577.828572z"  horiz-adv-x="1024" />

    
    <glyph glyph-name="sousuo" unicode="&#58910;" d="M488.727273 649.309091C409.6 663.272727 325.818182 635.345455 274.618182 574.836364c-13.963636-18.618182-13.963636-46.545455 4.654545-65.163637 18.618182-13.963636 46.545455-13.963636 65.163637 4.654546 32.581818 37.236364 79.127273 51.2 125.672727 46.545454 32.581818-4.654545 60.509091-23.272727 79.127273-51.2 9.309091-13.963636 23.272727-18.618182 37.236363-18.618182 9.309091 0 18.618182 4.654545 27.927273 9.309091 18.618182 13.963636 23.272727 41.890909 9.309091 65.163637-37.236364 41.890909-83.781818 74.472727-134.981818 83.781818zM1000.727273 20.945455l-176.872728 167.563636s-4.654545 4.654545-9.30909 4.654545c27.927273 46.545455 51.2 97.745455 60.50909 153.6 46.545455 237.381818-107.054545 465.454545-344.436363 512-27.927273 4.654545-55.854545 9.309091-83.781818 9.309091C242.036364 868.072727 60.509091 723.781818 18.618182 514.327273c-46.545455-237.381818 107.054545-465.454545 344.436363-512 27.927273-4.654545 55.854545-9.309091 83.781819-9.309091 102.4 0 200.145455 37.236364 279.272727 102.4 0 0 0-4.654545 4.654545-4.654546l176.872728-167.563636c13.963636-13.963636 27.927273-18.618182 46.545454-18.618182s37.236364 9.309091 51.2 23.272727c23.272727 27.927273 18.618182 69.818182-4.654545 93.09091zM446.836364 132.654545c-18.618182 0-37.236364 0-60.509091 4.654546-162.909091 32.581818-269.963636 190.836364-237.381818 353.745454 27.927273 139.636364 153.6 242.036364 297.890909 242.036364 18.618182 0 37.236364 0 60.509091-4.654545 162.909091-32.581818 269.963636-190.836364 237.381818-353.745455-32.581818-139.636364-153.6-242.036364-297.890909-242.036364z"  horiz-adv-x="1024" />

    
    <glyph glyph-name="jinan" unicode="&#58911;" d="M860.16-1.024h-69.632v409.6h16.384v20.48c4.096 0 4.096 0 8.192 4.096v16.384c102.4 40.96 176.128 131.072 176.128 237.568 0 16.384-4.096 36.864-8.192 53.248v4.096c0 8.192-4.096 12.288-8.192 16.384-4.096 0-4.096 4.096-8.192 4.096-8.192 0-16.384-8.192-16.384-16.384 0-110.592-86.016-196.608-196.608-196.608h-4.096c-106.496 4.096-192.512 86.016-192.512 192.512 20.48 12.288 36.864 32.768 36.864 57.344 0 36.864-28.672 65.536-65.536 65.536h-4.096-4.096c-36.864 0-65.536-28.672-65.536-65.536 0-24.576 16.384-45.056 36.864-57.344-4.096-106.496-86.016-192.512-192.512-192.512H286.72c-110.592 0-196.608 90.112-196.608 196.608 0 8.192-8.192 16.384-16.384 16.384-4.096 0-8.192 0-8.192-4.096-8.192-4.096-12.288-8.192-12.288-16.384v-4.096c-4.096-16.384-4.096-32.768-4.096-53.248 0-106.496 73.728-200.704 176.128-237.568v-16.384c4.096 0 4.096 0 8.192-4.096v-20.48h16.384v-409.6H176.128l-98.304-69.632h-4.096v-32.768h884.736v32.768h-4.096L860.16-1.024zM483.328 797.696c0 20.48 16.384 32.768 32.768 36.864 20.48 0 32.768-16.384 32.768-36.864 0-16.384-8.192-28.672-20.48-32.768-4.096 0-8.192 0-12.288-4.096-4.096 0-8.192 0-12.288 4.096-12.288 4.096-20.48 16.384-20.48 32.768z m94.208-798.72h-110.592v155.648c0 28.672 24.576 53.248 53.248 53.248h4.096c28.672 0 53.248-24.576 53.248-53.248v-155.648z m126.976 0h-77.824v155.648c0 53.248-45.056 98.304-98.304 98.304h-4.096c-53.248 0-98.304-45.056-98.304-98.304v-155.648H331.776v409.6h368.64v-409.6z"  horiz-adv-x="1024" />

    


  </font>
</defs>
</svg>
